<svg width="1243" height="273" viewBox="0 0 1243 273" fill="none" xmlns="http://www.w3.org/2000/svg">
<path fill-rule="evenodd" clip-rule="evenodd" d="M0 116.381C410.64 98.7001 824.742 98.379 1242.3 115.417C828.53 149.811 414.428 150.133 0 116.381Z" fill="url(#paint0_linear_6816_6059)"/>
<path d="M621.152 87.45C646.011 87.45 666.163 67.8737 666.163 43.725C666.163 19.5764 646.011 0 621.152 0C596.293 0 576.141 19.5764 576.141 43.725C576.141 67.8737 596.293 87.45 621.152 87.45Z" fill="url(#paint1_radial_6816_6059)"/>
<path d="M226.344 248.703V158.477H270.831C277.042 158.477 282.204 159.66 286.316 162.028C290.428 164.308 293.49 167.508 295.502 171.629C297.601 175.75 298.651 180.529 298.651 185.966C298.651 191.49 297.514 196.4 295.239 200.697C292.965 204.905 289.728 208.193 285.528 210.561C281.416 212.928 276.473 214.112 270.699 214.112H238.811V248.703H226.344ZM238.811 203.327H269.912C274.811 203.327 278.704 201.793 281.591 198.724C284.566 195.655 286.053 191.446 286.053 186.097C286.053 182.502 285.441 179.477 284.216 177.022C282.991 174.567 281.198 172.682 278.836 171.366C276.473 169.963 273.499 169.262 269.912 169.262H238.811V203.327Z" fill="#4B4B4B"/>
<path d="M327.426 250.282C324.889 250.282 322.352 249.975 319.815 249.361C317.278 248.747 314.916 247.739 312.729 246.336C310.542 244.933 308.792 243.004 307.48 240.549C306.167 238.006 305.511 234.849 305.511 231.079C305.511 226.344 306.648 222.442 308.923 219.373C311.198 216.304 314.347 213.937 318.372 212.271C322.483 210.517 327.339 209.333 332.938 208.72C338.537 208.018 344.618 207.667 351.179 207.667V199.776C351.179 197.233 350.742 195.041 349.867 193.2C348.992 191.358 347.417 189.955 345.142 188.991C342.955 187.939 339.806 187.412 335.694 187.412C331.757 187.412 328.608 187.939 326.245 188.991C323.971 189.955 322.352 191.227 321.39 192.805C320.515 194.383 320.078 196.137 320.078 198.066V200.039H308.923C308.836 199.6 308.792 199.162 308.792 198.724C308.792 198.285 308.792 197.759 308.792 197.145C308.792 192.936 309.929 189.429 312.204 186.623C314.566 183.73 317.847 181.581 322.046 180.178C326.245 178.688 331.057 177.943 336.481 177.943C342.255 177.943 347.067 178.776 350.917 180.442C354.853 182.108 357.784 184.475 359.709 187.544C361.721 190.613 362.727 194.296 362.727 198.592V236.077C362.727 237.743 363.121 238.927 363.908 239.628C364.696 240.242 365.658 240.549 366.795 240.549H371.913V248.177C370.688 248.703 369.332 249.142 367.845 249.493C366.358 249.931 364.652 250.15 362.727 250.15C360.453 250.15 358.572 249.668 357.084 248.703C355.597 247.827 354.46 246.599 353.672 245.021C352.885 243.355 352.36 241.513 352.098 239.497H351.179C349.604 241.689 347.592 243.618 345.142 245.284C342.78 246.862 340.112 248.09 337.137 248.966C334.163 249.843 330.926 250.282 327.426 250.282ZM330.313 240.549C333.113 240.549 335.738 240.11 338.187 239.234C340.724 238.357 342.955 237.129 344.88 235.551C346.805 233.885 348.336 231.912 349.473 229.632C350.61 227.352 351.179 224.853 351.179 222.135V216.348C344.093 216.348 338.056 216.743 333.069 217.532C328.083 218.321 324.233 219.724 321.521 221.741C318.897 223.757 317.584 226.607 317.584 230.29C317.584 232.657 318.109 234.586 319.159 236.077C320.209 237.568 321.696 238.707 323.621 239.497C325.545 240.198 327.776 240.549 330.313 240.549Z" fill="#4B4B4B"/>
<path d="M381.614 248.703V179.521H390.931L391.981 190.964H392.9C393.6 188.772 394.562 186.711 395.787 184.782C397.012 182.765 398.674 181.143 400.774 179.915C402.873 178.6 405.454 177.943 408.516 177.943C409.828 177.943 411.009 178.074 412.059 178.337C413.197 178.513 414.028 178.732 414.553 178.995V189.648H410.222C407.248 189.648 404.667 190.174 402.48 191.227C400.38 192.191 398.63 193.594 397.23 195.435C395.831 197.277 394.781 199.469 394.081 202.012C393.468 204.555 393.162 207.273 393.162 210.166V248.703H381.614Z" fill="#4B4B4B"/>
<path d="M441.227 250.282C438.69 250.282 436.153 249.975 433.616 249.361C431.079 248.747 428.717 247.739 426.529 246.336C424.342 244.933 422.593 243.004 421.28 240.549C419.968 238.006 419.312 234.849 419.312 231.079C419.312 226.344 420.449 222.442 422.724 219.373C424.998 216.304 428.148 213.937 432.172 212.271C436.284 210.517 441.14 209.333 446.739 208.72C452.338 208.018 458.418 207.667 464.98 207.667V199.776C464.98 197.233 464.542 195.041 463.667 193.2C462.793 191.358 461.218 189.955 458.943 188.991C456.756 187.939 453.606 187.412 449.495 187.412C445.558 187.412 442.408 187.939 440.046 188.991C437.771 189.955 436.153 191.227 435.191 192.805C434.316 194.383 433.878 196.137 433.878 198.066V200.039H422.724C422.636 199.6 422.593 199.162 422.593 198.724C422.593 198.285 422.593 197.759 422.593 197.145C422.593 192.936 423.73 189.429 426.004 186.623C428.367 183.73 431.647 181.581 435.847 180.178C440.046 178.688 444.858 177.943 450.282 177.943C456.056 177.943 460.868 178.776 464.717 180.442C468.654 182.108 471.585 184.475 473.51 187.544C475.522 190.613 476.528 194.296 476.528 198.592V236.077C476.528 237.743 476.922 238.927 477.709 239.628C478.496 240.242 479.459 240.549 480.596 240.549H485.714V248.177C484.489 248.703 483.133 249.142 481.646 249.493C480.159 249.931 478.453 250.15 476.528 250.15C474.253 250.15 472.372 249.668 470.885 248.703C469.398 247.827 468.26 246.599 467.473 245.021C466.686 243.355 466.161 241.513 465.898 239.497H464.98C463.405 241.689 461.393 243.618 458.943 245.284C456.581 246.862 453.913 248.09 450.938 248.966C447.964 249.843 444.727 250.282 441.227 250.282ZM444.114 240.549C446.914 240.549 449.538 240.11 451.988 239.234C454.525 238.357 456.756 237.129 458.681 235.551C460.605 233.885 462.136 231.912 463.274 229.632C464.411 227.352 464.98 224.853 464.98 222.135V216.348C457.893 216.348 451.857 216.743 446.87 217.532C441.883 218.321 438.034 219.724 435.322 221.741C432.697 223.757 431.385 226.607 431.385 230.29C431.385 232.657 431.91 234.586 432.96 236.077C434.01 237.568 435.497 238.707 437.421 239.497C439.346 240.198 441.577 240.549 444.114 240.549Z" fill="#4B4B4B"/>
<path d="M507.094 272.641C503.77 272.641 500.708 271.94 497.908 270.537C495.109 269.221 492.878 267.292 491.215 264.75C489.553 262.207 488.722 259.182 488.722 255.674C488.722 251.816 489.772 248.616 491.872 246.073C494.059 243.53 496.64 241.645 499.614 240.417C497.427 239.365 495.721 237.918 494.496 236.077C493.271 234.148 492.659 232.043 492.659 229.764C492.659 226.695 493.752 224.108 495.94 222.004C498.214 219.899 500.97 218.496 504.207 217.795C501.233 215.866 498.87 213.411 497.121 210.429C495.458 207.36 494.627 203.985 494.627 200.302C494.627 195.918 495.633 192.06 497.646 188.728C499.745 185.396 502.895 182.765 507.094 180.836C511.381 178.907 516.586 177.943 522.71 177.943C525.51 177.943 528.135 178.162 530.584 178.6C533.034 178.951 535.221 179.565 537.146 180.442C540.208 179.039 542.482 177.241 543.97 175.049C545.544 172.857 546.507 170.621 546.857 168.341H558.274C558.274 170.972 557.661 173.471 556.436 175.838C555.299 178.118 553.724 180.047 551.712 181.625C549.7 183.116 547.25 184.124 544.363 184.65C546.551 186.755 548.169 189.122 549.219 191.753C550.356 194.383 550.925 197.233 550.925 200.302C550.925 204.686 549.875 208.588 547.775 212.008C545.763 215.34 542.701 217.97 538.589 219.899C534.477 221.828 529.316 222.793 523.104 222.793H512.343C509.981 222.793 508.056 223.275 506.569 224.24C505.082 225.116 504.338 226.563 504.338 228.58C504.338 230.334 505.082 231.78 506.569 232.92C508.056 233.973 509.981 234.499 512.343 234.499H540.426C545.501 234.499 549.656 236.208 552.893 239.628C556.13 242.96 557.749 247.257 557.749 252.518C557.749 256.288 556.786 259.664 554.862 262.645C553.025 265.714 550.4 268.125 546.988 269.879C543.663 271.72 539.77 272.641 535.309 272.641H507.094ZM510.375 263.829H535.177C537.189 263.829 539.027 263.39 540.689 262.514C542.351 261.724 543.663 260.585 544.626 259.094C545.588 257.603 546.069 255.981 546.069 254.228C546.069 251.246 545.194 248.879 543.445 247.125C541.695 245.371 539.508 244.495 536.883 244.495H510.375C507.575 244.495 505.213 245.459 503.288 247.388C501.364 249.23 500.401 251.509 500.401 254.228C500.401 257.121 501.364 259.445 503.288 261.198C505.213 262.952 507.575 263.829 510.375 263.829ZM522.842 214.112C528.441 214.112 532.596 212.885 535.309 210.429C538.021 207.974 539.377 204.598 539.377 200.302C539.377 196.093 538.021 192.761 535.309 190.306C532.596 187.851 528.441 186.623 522.842 186.623C517.243 186.623 513.043 187.851 510.244 190.306C507.532 192.761 506.176 196.093 506.176 200.302C506.176 203.02 506.788 205.431 508.013 207.536C509.238 209.64 511.075 211.262 513.524 212.402C515.974 213.542 519.08 214.112 522.842 214.112Z" fill="#4B4B4B"/>
<path d="M596.68 250.282C589.681 250.282 583.776 249.01 578.964 246.467C574.24 243.837 570.609 239.847 568.072 234.499C565.622 229.15 564.397 222.354 564.397 214.112C564.397 205.782 565.622 198.987 568.072 193.726C570.609 188.377 574.24 184.431 578.964 181.888C583.776 179.258 589.681 177.943 596.68 177.943C603.679 177.943 609.54 179.258 614.265 181.888C619.076 184.431 622.707 188.377 625.157 193.726C627.606 198.987 628.831 205.782 628.831 214.112C628.831 222.354 627.606 229.15 625.157 234.499C622.707 239.847 619.076 243.837 614.265 246.467C609.54 249.01 603.679 250.282 596.68 250.282ZM596.68 240.549C601.142 240.549 604.86 239.672 607.834 237.918C610.809 236.165 613.04 233.446 614.527 229.764C616.102 225.993 616.889 221.258 616.889 215.559V212.665C616.889 206.878 616.102 202.143 614.527 198.461C613.04 194.778 610.809 192.06 607.834 190.306C604.86 188.552 601.142 187.675 596.68 187.675C592.218 187.675 588.456 188.552 585.394 190.306C582.42 192.06 580.189 194.778 578.701 198.461C577.214 202.143 576.471 206.878 576.471 212.665V215.559C576.471 221.258 577.214 225.993 578.701 229.764C580.189 233.446 582.42 236.165 585.394 237.918C588.456 239.672 592.218 240.549 596.68 240.549Z" fill="#4B4B4B"/>
<path d="M643.176 248.703V179.521H652.493L653.543 189.911H654.462C656.299 187.106 658.355 184.826 660.63 183.072C662.992 181.318 665.573 180.047 668.372 179.258C671.259 178.381 674.321 177.943 677.558 177.943C681.933 177.943 685.738 178.688 688.975 180.178C692.3 181.669 694.881 184.08 696.718 187.412C698.643 190.744 699.605 195.26 699.605 200.96V248.703H688.057V202.538C688.057 199.644 687.663 197.277 686.876 195.435C686.176 193.594 685.17 192.147 683.857 191.095C682.633 190.043 681.102 189.298 679.264 188.859C677.515 188.421 675.546 188.202 673.359 188.202C670.122 188.202 667.06 188.991 664.173 190.569C661.286 192.147 658.968 194.427 657.218 197.408C655.556 200.39 654.724 203.941 654.724 208.062V248.703H643.176Z" fill="#4B4B4B"/>
<path d="M785.227 250.282C776.041 250.282 768.255 248.616 761.868 245.284C755.482 241.864 750.582 236.735 747.171 229.895C743.846 222.968 742.184 214.2 742.184 203.59C742.184 187.895 745.989 176.189 753.601 168.473C761.212 160.757 771.798 156.898 785.358 156.898C793.057 156.898 799.881 158.17 805.83 160.713C811.779 163.168 816.416 166.938 819.741 172.024C823.153 177.022 824.858 183.335 824.858 190.964H812.26C812.26 185.703 811.123 181.362 808.848 177.943C806.661 174.523 803.556 171.98 799.531 170.314C795.507 168.56 790.782 167.684 785.358 167.684C779.059 167.684 773.635 168.911 769.086 171.366C764.537 173.821 761.081 177.636 758.719 182.809C756.357 187.895 755.176 194.471 755.176 202.538V205.3C755.176 213.279 756.357 219.812 758.719 224.897C761.081 229.895 764.493 233.578 768.955 235.945C773.504 238.313 778.972 239.497 785.358 239.497C790.957 239.497 795.769 238.664 799.794 236.998C803.905 235.332 807.055 232.789 809.242 229.369C811.517 225.862 812.654 221.478 812.654 216.217H824.858C824.858 224.02 823.109 230.421 819.609 235.419C816.197 240.417 811.517 244.144 805.568 246.599C799.619 249.054 792.838 250.282 785.227 250.282Z" fill="#4B4B4B"/>
<path d="M868.366 250.282C861.367 250.282 855.462 249.01 850.65 246.467C845.926 243.837 842.295 239.847 839.758 234.499C837.309 229.15 836.084 222.354 836.084 214.112C836.084 205.782 837.309 198.987 839.758 193.726C842.295 188.377 845.926 184.431 850.65 181.888C855.462 179.258 861.367 177.943 868.366 177.943C875.365 177.943 881.227 179.258 885.951 181.888C890.763 184.431 894.393 188.377 896.843 193.726C899.293 198.987 900.517 205.782 900.517 214.112C900.517 222.354 899.293 229.15 896.843 234.499C894.393 239.847 890.763 243.837 885.951 246.467C881.227 249.01 875.365 250.282 868.366 250.282ZM868.366 240.549C872.828 240.549 876.546 239.672 879.521 237.918C882.495 236.165 884.726 233.446 886.213 229.764C887.788 225.993 888.576 221.258 888.576 215.559V212.665C888.576 206.878 887.788 202.143 886.213 198.461C884.726 194.778 882.495 192.06 879.521 190.306C876.546 188.552 872.828 187.675 868.366 187.675C863.904 187.675 860.143 188.552 857.08 190.306C854.106 192.06 851.875 194.778 850.388 198.461C848.9 202.143 848.157 206.878 848.157 212.665V215.559C848.157 221.258 848.9 225.993 850.388 229.764C851.875 233.446 854.106 236.165 857.08 237.918C860.143 239.672 863.904 240.549 868.366 240.549Z" fill="#4B4B4B"/>
<path d="M914.863 248.703V179.521H924.18L925.23 190.964H926.148C926.848 188.772 927.81 186.711 929.035 184.782C930.26 182.765 931.922 181.143 934.022 179.915C936.122 178.6 938.703 177.943 941.765 177.943C943.077 177.943 944.258 178.074 945.308 178.337C946.445 178.513 947.276 178.732 947.801 178.995V189.648H943.471C940.496 189.648 937.915 190.174 935.728 191.227C933.628 192.191 931.879 193.594 930.479 195.435C929.079 197.277 928.029 199.469 927.329 202.012C926.717 204.555 926.411 207.273 926.411 210.166V248.703H914.863Z" fill="#4B4B4B"/>
<path d="M958.435 271.457V179.521H967.621L968.802 189.385H969.721C972.083 185.527 975.101 182.677 978.775 180.836C982.45 178.907 986.605 177.943 991.242 177.943C997.016 177.943 1001.92 179.214 1005.94 181.757C1009.96 184.3 1013.07 188.289 1015.26 193.726C1017.44 199.074 1018.54 206.045 1018.54 214.638C1018.54 222.705 1017.4 229.413 1015.13 234.762C1012.94 240.023 1009.83 243.925 1005.81 246.467C1001.78 249.01 997.104 250.282 991.767 250.282C988.793 250.282 985.993 249.931 983.368 249.23C980.744 248.528 978.382 247.432 976.282 245.941C974.182 244.363 972.345 242.39 970.77 240.023H969.983V271.457H958.435ZM988.093 240.154C992.38 240.154 995.879 239.321 998.591 237.655C1001.3 235.902 1003.32 233.227 1004.63 229.632C1005.94 225.949 1006.6 221.258 1006.6 215.559V212.797C1006.6 206.747 1005.9 201.924 1004.5 198.329C1003.1 194.646 1001.04 192.016 998.329 190.438C995.704 188.859 992.423 188.07 988.486 188.07C984.2 188.07 980.656 189.035 977.857 190.964C975.145 192.805 973.133 195.611 971.82 199.381C970.595 203.152 969.983 207.755 969.983 213.191V215.164C969.983 219.987 970.42 224.02 971.295 227.265C972.258 230.421 973.57 232.964 975.232 234.893C976.982 236.822 978.95 238.181 981.138 238.971C983.325 239.76 985.643 240.154 988.093 240.154Z" fill="#4B4B4B"/>
<defs>
<linearGradient id="paint0_linear_6816_6059" x1="621.152" y1="102.875" x2="621.152" y2="141.456" gradientUnits="userSpaceOnUse">
<stop offset="0.302885" stop-color="#1A4238"/>
<stop offset="1" stop-color="#000400"/>
</linearGradient>
<radialGradient id="paint1_radial_6816_6059" cx="0" cy="0" r="1" gradientTransform="matrix(27.3815 55.5552 -57.1892 26.5992 611.604 27.8539)" gradientUnits="userSpaceOnUse">
<stop stop-color="#266454"/>
<stop offset="0.485577" stop-color="#0D332C"/>
<stop offset="0.725962" stop-color="#000B0C"/>
<stop offset="0.855769" stop-color="#19302E"/>
<stop offset="1" stop-color="#112823"/>
</radialGradient>
</defs>
</svg>
